<svg xmlns="http://www.w3.org/2000/svg" width="21.188" height="25.289" viewBox="0 0 21.188 25.289">
  <g id="marqueur" transform="translate(-1.945 0.002)">
    <path id="Tracé_1" data-name="Tracé 1" d="M12.214,6a4.214,4.214,0,1,0,4.214,4.214A4.214,4.214,0,0,0,12.214,6Zm0,6.322a2.107,2.107,0,1,1,2.107-2.107A2.107,2.107,0,0,1,12.214,12.322Z" transform="translate(0.325 0.322)" fill="#fff"/>
    <path id="Tracé_2" data-name="Tracé 2" d="M12.539,25.287A5.554,5.554,0,0,1,8,22.969c-4.015-5.539-6.052-9.7-6.052-12.377a10.594,10.594,0,1,1,21.188,0c0,2.674-2.037,6.838-6.052,12.377a5.554,5.554,0,0,1-4.542,2.318Zm0-22.989a8.306,8.306,0,0,0-8.3,8.3c0,2.118,1.995,6.034,5.615,11.027a3.314,3.314,0,0,0,5.363,0c3.62-4.993,5.615-8.909,5.615-11.027a8.306,8.306,0,0,0-8.3-8.3Z" transform="translate(0)" fill="#fff"/>
  </g>
</svg>
