<svg xmlns="http://www.w3.org/2000/svg" width="26.985" height="32.38" viewBox="0 0 26.985 32.38">
  <path id="telechargement-de-fichiers" d="M26.219,7.469l-4.7-4.7A9.383,9.383,0,0,0,14.838,0H8.746A6.752,6.752,0,0,0,2,6.746V25.635a6.754,6.754,0,0,0,6.746,6.746H22.238a6.754,6.754,0,0,0,6.746-6.746V14.146a9.385,9.385,0,0,0-2.766-6.679ZM24.311,9.377A6.788,6.788,0,0,1,25.4,10.793H19.54a1.351,1.351,0,0,1-1.349-1.349V3.587a6.753,6.753,0,0,1,1.417,1.086l4.7,4.7Zm1.975,16.258a4.053,4.053,0,0,1-4.048,4.048H8.746A4.053,4.053,0,0,1,4.7,25.635V6.746A4.053,4.053,0,0,1,8.746,2.7h6.092c.22,0,.438.011.654.031V9.444a4.053,4.053,0,0,0,4.048,4.048h6.715c.02.216.031.434.031.654V25.635Zm-5.792-6.1a1.349,1.349,0,1,1-1.908,1.908L16.842,19.7v5.934a1.349,1.349,0,1,1-2.7,0V19.7L12.4,21.446a1.349,1.349,0,0,1-1.908-1.908l2.178-2.178a4,4,0,0,1,5.649,0L20.5,19.538Z" transform="translate(-2 -0.001)" fill="#fff"/>
</svg>
