<svg xmlns="http://www.w3.org/2000/svg" width="32.719" height="32.719" viewBox="0 0 32.719 32.719">
  <path id="decouvrir" d="M28.861,26.933a6.822,6.822,0,1,0-1.928,1.928l3.459,3.459a1.363,1.363,0,0,0,1.928-1.928l-3.459-3.459Zm-9.775-3.757a4.09,4.09,0,1,1,4.09,4.09A4.095,4.095,0,0,1,19.086,23.176ZM8.18,6.135A2.045,2.045,0,1,1,6.135,4.09,2.046,2.046,0,0,1,8.18,6.135Zm5.453,0A2.045,2.045,0,1,1,11.588,4.09,2.046,2.046,0,0,1,13.633,6.135ZM25.9,0H6.816A6.824,6.824,0,0,0,0,6.816v16.36a6.824,6.824,0,0,0,6.816,6.816h6.816a1.363,1.363,0,1,0,0-2.727H6.816a4.1,4.1,0,0,1-4.09-4.09V12.27H29.992v4.09a1.363,1.363,0,1,0,2.727,0V6.816A6.824,6.824,0,0,0,25.9,0ZM2.727,9.543V6.816a4.1,4.1,0,0,1,4.09-4.09H25.9a4.1,4.1,0,0,1,4.09,4.09V9.543Z" fill="#fff"/>
</svg>
