<svg xmlns="http://www.w3.org/2000/svg" xmlns:xlink="http://www.w3.org/1999/xlink" width="130.508" height="22.063" viewBox="0 0 130.508 22.063">
  <defs>
    <linearGradient id="linear-gradient" x1="1.197" y1="1.576" x2="0.098" y2="2.815" gradientUnits="objectBoundingBox">
      <stop offset="0" stop-color="#ff6a00"/>
      <stop offset="1" stop-color="#4a00c2"/>
    </linearGradient>
  </defs>
  <path id="Intersection_1" data-name="Intersection 1" d="M759.978,767.44a7.439,7.439,0,0,1-2.87-2.87,7.9,7.9,0,0,1-.98-3.878v-.643a7.9,7.9,0,0,1,1.022-3.962,7.586,7.586,0,0,1,2.911-2.885,9.935,9.935,0,0,1,9,0,7.563,7.563,0,0,1,2.926,2.885,7.9,7.9,0,0,1,1.022,3.962v.643a7.816,7.816,0,0,1-.994,3.878,7.569,7.569,0,0,1-2.87,2.87,10.174,10.174,0,0,1-9.17,0Zm1.666-10.262a4.918,4.918,0,0,0-1.036,3.206,4.8,4.8,0,0,0,1.008,3.122,3.561,3.561,0,0,0,2.94,1.246,3.6,3.6,0,0,0,2.954-1.246,4.76,4.76,0,0,0,1.021-3.122,4.872,4.872,0,0,0-1.049-3.206,3.583,3.583,0,0,0-2.926-1.274A3.541,3.541,0,0,0,761.644,757.178ZM722.738,767.44a7.439,7.439,0,0,1-2.87-2.87,7.9,7.9,0,0,1-.98-3.878v-.643a7.9,7.9,0,0,1,1.022-3.962,7.589,7.589,0,0,1,2.912-2.885,9.934,9.934,0,0,1,9,0,7.564,7.564,0,0,1,2.926,2.885,7.9,7.9,0,0,1,1.021,3.962v.643a7.816,7.816,0,0,1-.994,3.878,7.563,7.563,0,0,1-2.87,2.87,10.174,10.174,0,0,1-9.17,0Zm1.666-10.262a4.918,4.918,0,0,0-1.036,3.206,4.807,4.807,0,0,0,1.008,3.122,3.561,3.561,0,0,0,2.94,1.246,3.6,3.6,0,0,0,2.954-1.246,4.76,4.76,0,0,0,1.022-3.122,4.873,4.873,0,0,0-1.05-3.206,3.583,3.583,0,0,0-2.926-1.274A3.542,3.542,0,0,0,724.4,757.178ZM679.422,767.44a7.439,7.439,0,0,1-2.87-2.87,7.909,7.909,0,0,1-.979-3.878v-.643a7.9,7.9,0,0,1,1.022-3.962,7.589,7.589,0,0,1,2.912-2.885,9.934,9.934,0,0,1,9,0,7.564,7.564,0,0,1,2.926,2.885,7.9,7.9,0,0,1,1.022,3.962v.643a7.817,7.817,0,0,1-.995,3.878,7.563,7.563,0,0,1-2.87,2.87,10.174,10.174,0,0,1-9.17,0Zm1.666-10.262a4.918,4.918,0,0,0-1.036,3.206,4.807,4.807,0,0,0,1.008,3.122,3.561,3.561,0,0,0,2.94,1.246,3.6,3.6,0,0,0,2.954-1.246,4.76,4.76,0,0,0,1.022-3.122,4.873,4.873,0,0,0-1.05-3.206A3.581,3.581,0,0,0,684,755.9,3.542,3.542,0,0,0,681.088,757.178Zm95.76,9.954a4.692,4.692,0,0,1-1.959-3.78h3.975a1.91,1.91,0,0,0,.868,1.3,3.915,3.915,0,0,0,2.324.573,4.3,4.3,0,0,0,1.932-.391,1.278,1.278,0,0,0,.2-2.255,4.9,4.9,0,0,0-2.1-.573l-1.2-.112a7.375,7.375,0,0,1-4.158-1.54,4.106,4.106,0,0,1-1.386-3.22,4.373,4.373,0,0,1,.826-2.716,5.076,5.076,0,0,1,2.255-1.651,8.919,8.919,0,0,1,3.276-.56,7.991,7.991,0,0,1,4.774,1.3,4.637,4.637,0,0,1,1.918,3.767h-3.976a1.95,1.95,0,0,0-.8-1.26,3.167,3.167,0,0,0-1.975-.532,3.049,3.049,0,0,0-1.651.391,1.208,1.208,0,0,0-.617,1.064,1.088,1.088,0,0,0,.533.98,4.333,4.333,0,0,0,1.735.476l1.2.112a8.318,8.318,0,0,1,4.382,1.581,4.118,4.118,0,0,1,1.582,3.374,4.3,4.3,0,0,1-1.848,3.668,8.309,8.309,0,0,1-4.984,1.344A8.576,8.576,0,0,1,776.848,767.132ZM714.716,768.2a10.227,10.227,0,0,1-3.752-.574,3.817,3.817,0,0,1-2.086-1.931,8.56,8.56,0,0,1-.658-3.682v-6.077H705.9v-3.276h2.324v-4.144h4.172v4.144h4.479v3.276h-4.479v6.244a2.256,2.256,0,0,0,.573,1.666,2.215,2.215,0,0,0,1.638.574h2.268v3.78Zm33.74-.2V755.96h-2.044v-3.3h6.524V768Zm-9.352,0V750.864h-1.821v-3.3h6.329V768Zm-43.512,0V752.656h3.556v5.208a6.458,6.458,0,0,1,1.61-4,4.928,4.928,0,0,1,3.71-1.4h.589v3.864h-1.12a3.853,3.853,0,0,0-2.87,1.008,3.9,3.9,0,0,0-.994,2.856V768Zm-37.3,0V747.392h7.476a9.01,9.01,0,0,1,6.1,1.919,6.587,6.587,0,0,1,2.212,5.25v.448a6.556,6.556,0,0,1-2.212,5.222,9.01,9.01,0,0,1-6.1,1.918h-2.885V768Zm4.592-9.828H666a3.408,3.408,0,0,0,2.52-.923,3.332,3.332,0,0,0,.923-2.464,3.368,3.368,0,0,0-.923-2.492,3.408,3.408,0,0,0-2.52-.924h-3.109Zm85.442-7.686a2.372,2.372,0,0,1-.6-1.666,2.465,2.465,0,1,1,4.928,0,2.375,2.375,0,0,1-.6,1.666,2.964,2.964,0,0,1-3.724,0Z" transform="translate(-658.296 -746.468)" fill="url(#linear-gradient)"/>
</svg>
