<svg xmlns="http://www.w3.org/2000/svg" width="20.934" height="21.035" viewBox="0 0 20.934 21.035">
  <path id="Tracé_5250" data-name="Tracé 5250" d="M17.942,3.057A10.426,10.426,0,0,0,1.536,15.634l-1.479,5.4,5.525-1.45a10.413,10.413,0,0,0,4.981,1.269h0a10.429,10.429,0,0,0,7.375-17.8ZM10.568,19.094h0a8.641,8.641,0,0,1-4.409-1.208L5.839,17.7l-3.279.86.876-3.2-.206-.328a8.663,8.663,0,1,1,7.339,4.061Zm4.752-6.488c-.26-.131-1.541-.761-1.78-.848s-.412-.131-.586.13-.672.848-.825,1.022-.3.2-.564.065A7.109,7.109,0,0,1,9.47,11.682a7.84,7.84,0,0,1-1.449-1.8c-.152-.261-.016-.4.114-.531s.26-.3.391-.457a1.731,1.731,0,0,0,.262-.434A.479.479,0,0,0,8.766,8c-.066-.13-.586-1.412-.8-1.933s-.426-.439-.586-.447-.325-.009-.5-.009a.954.954,0,0,0-.694.326,2.924,2.924,0,0,0-.912,2.173A5.068,5.068,0,0,0,6.335,10.8a11.6,11.6,0,0,0,4.449,3.933,15.069,15.069,0,0,0,1.485.549,3.58,3.58,0,0,0,1.641.1,2.683,2.683,0,0,0,1.758-1.238,2.167,2.167,0,0,0,.152-1.238C15.754,12.8,15.581,12.736,15.321,12.605Z" transform="translate(-0.057)" fill="#fff" fill-rule="evenodd"/>
</svg>
